<svg xmlns="http://www.w3.org/2000/svg" xmlns:xlink="http://www.w3.org/1999/xlink" viewBox="0 0 106.77 75.71"><defs><style>.cls-1{isolation:isolate;}.cls-2{fill:url(#linear-gradient);}.cls-3{fill:url(#radial-gradient);}.cls-10,.cls-13,.cls-14,.cls-15,.cls-4,.cls-5,.cls-8,.cls-9{mix-blend-mode:overlay;}.cls-4{fill:url(#radial-gradient-2);}.cls-14,.cls-5,.cls-9{opacity:0.4;}.cls-5{fill:url(#Degradado_sin_nombre_34);}.cls-6{fill:url(#radial-gradient-3);}.cls-7{fill:url(#radial-gradient-4);}.cls-8{fill:url(#radial-gradient-5);}.cls-9{fill:url(#radial-gradient-6);}.cls-10,.cls-15{opacity:0.2;}.cls-10{fill:url(#Degradado_sin_nombre_34-2);}.cls-11{fill:url(#radial-gradient-7);}.cls-12{fill:url(#radial-gradient-8);}.cls-13{fill:url(#radial-gradient-9);}.cls-14{fill:url(#radial-gradient-10);}.cls-15{fill:url(#Degradado_sin_nombre_34-3);}</style><linearGradient id="linear-gradient" x1="90.08" y1="-1.14" x2="22.82" y2="74.02" gradientUnits="userSpaceOnUse"><stop offset="0" stop-color="#ffba24"/><stop offset="1" stop-color="#f50"/></linearGradient><radialGradient id="radial-gradient" cx="-656.38" cy="20.08" r="53.81" gradientTransform="matrix(-1, 0, 0, 1, -594.71, 0)" gradientUnits="userSpaceOnUse"><stop offset="0" stop-color="#fff4c3"/><stop offset="0.16" stop-color="#ffe036"/><stop offset="1" stop-color="#fa761c"/></radialGradient><radialGradient id="radial-gradient-2" cx="623.66" cy="-1766.39" r="8.08" gradientTransform="matrix(-0.84, 1.15, -1.62, -1.31, -2269.42, -3012.39)" gradientUnits="userSpaceOnUse"><stop offset="0" stop-color="#fff"/><stop offset="0.1" stop-color="#fff" stop-opacity="0.85"/><stop offset="0.29" stop-color="#fff" stop-opacity="0.59"/><stop offset="0.47" stop-color="#fff" stop-opacity="0.38"/><stop offset="0.63" stop-color="#fff" stop-opacity="0.22"/><stop offset="0.78" stop-color="#fff" stop-opacity="0.1"/><stop offset="0.91" stop-color="#fff" stop-opacity="0.03"/><stop offset="1" stop-color="#fff" stop-opacity="0"/></radialGradient><radialGradient id="Degradado_sin_nombre_34" cx="-3385.94" cy="3532.63" r="7.79" gradientTransform="matrix(-1.17, -1.1, 0.22, -0.73, -4712.28, -1101.4)" xlink:href="#radial-gradient-2"/><radialGradient id="radial-gradient-3" cx="30.41" cy="48.51" r="37.04" gradientTransform="translate(60.81 83.95) rotate(180) scale(1 0.73)" gradientUnits="userSpaceOnUse"><stop offset="0" stop-color="#fff"/><stop offset="0.2" stop-color="#d5f3ff"/><stop offset="1" stop-color="#85bcf1"/></radialGradient><radialGradient id="radial-gradient-4" cx="38.81" cy="53.34" r="42.11" gradientUnits="userSpaceOnUse"><stop offset="0" stop-color="#ffe036"/><stop offset="0.08" stop-color="#fecb31" stop-opacity="0.81"/><stop offset="0.18" stop-color="#fdb52b" stop-opacity="0.6"/><stop offset="0.28" stop-color="#fca227" stop-opacity="0.41"/><stop offset="0.38" stop-color="#fb9223" stop-opacity="0.26"/><stop offset="0.48" stop-color="#fb8620" stop-opacity="0.15"/><stop offset="0.58" stop-color="#fa7d1e" stop-opacity="0.07"/><stop offset="0.68" stop-color="#fa781c" stop-opacity="0.02"/><stop offset="0.77" stop-color="#fa761c" stop-opacity="0"/></radialGradient><radialGradient id="radial-gradient-5" cx="654.23" cy="-1758.61" r="4.47" xlink:href="#radial-gradient-2"/><radialGradient id="radial-gradient-6" cx="654.09" cy="-1766.86" r="3.51" xlink:href="#radial-gradient-2"/><radialGradient id="Degradado_sin_nombre_34-2" cx="5.77" cy="68.41" r="2.57" gradientTransform="matrix(0.9, -0.43, 1.26, 2.62, -85.82, -108.53)" xlink:href="#radial-gradient-2"/><radialGradient id="radial-gradient-7" cx="92.71" cy="20" r="28.68" gradientTransform="translate(185.43 34.61) rotate(180) scale(1 0.73)" xlink:href="#radial-gradient-3"/><radialGradient id="radial-gradient-8" cx="73.98" cy="29.85" r="38.33" xlink:href="#radial-gradient-4"/><radialGradient id="radial-gradient-9" cx="610.63" cy="-1774.83" r="3.46" xlink:href="#radial-gradient-2"/><radialGradient id="radial-gradient-10" cx="610.53" cy="-1781.22" r="2.72" xlink:href="#radial-gradient-2"/><radialGradient id="Degradado_sin_nombre_34-3" cx="73.64" cy="35.41" r="1.99" gradientTransform="matrix(0.9, -0.43, 1.26, 2.62, -37.42, -25.52)" xlink:href="#radial-gradient-2"/></defs><g class="cls-1"><g id="Слой_2" data-name="Слой 2"><g id="OBJECTS"><polygon class="cls-2" points="85.13 61.7 76.75 62.26 75.17 70.51 67.1 68.16 62.79 75.37 56.02 70.4 49.5 75.71 44.84 68.73 36.9 71.48 34.9 63.32 26.5 63.2 27.41 54.85 19.56 51.86 23.28 44.32 16.92 38.83 22.99 33.02 18.89 25.68 26.58 22.3 25.24 14.01 33.63 13.46 35.21 5.2 43.27 7.55 47.58 0.34 54.36 5.3 60.87 0 65.54 6.98 73.47 4.22 75.47 12.39 83.88 12.51 82.96 20.86 90.81 23.85 87.1 31.39 93.45 36.88 87.39 42.69 91.48 50.02 83.79 53.41 85.13 61.7"/><path class="cls-3" d="M26.84,37.85A28.35,28.35,0,1,0,55.19,9.51,28.35,28.35,0,0,0,26.84,37.85Z"/><path class="cls-4" d="M59.51,34.94c-7.22-5.86-10-14.77-6.3-19.92s12.63-4.57,19.85,1.28,10,14.78,6.3,19.92S66.72,40.79,59.51,34.94Z"/><path class="cls-5" d="M30.13,44.12C31.09,41,36,42.28,41,47s8.35,11.12,7.4,14.26-5.81,1.83-10.86-2.9S29.18,47.25,30.13,44.12Z"/><path class="cls-6" d="M38.49,54.5a14.24,14.24,0,0,0-28.41,0,10.61,10.61,0,0,0,.53,21.21H38a10.61,10.61,0,0,0,.54-21.21Z"/><path class="cls-7" d="M38.49,54.5a14.24,14.24,0,0,0-28.41,0,10.61,10.61,0,0,0,.53,21.21H38a10.61,10.61,0,0,0,.54-21.21Z"/><path class="cls-8" d="M24.28,55.82c-4-3.24-5.55-8.17-3.48-11s7-2.52,11,.71,5.56,8.18,3.49,11S28.28,59.06,24.28,55.82Z"/><path class="cls-9" d="M38.56,65.4c-3.14-2.54-4.36-6.42-2.74-8.66s5.5-2,8.64.56,4.36,6.42,2.73,8.66S41.7,68,38.56,65.4Z"/><path class="cls-10" d="M7.59,65.76c-2.32-3.62-5-5.36-6-3.89s.06,5.58,2.37,9.2S9,76.42,10,75,9.9,69.37,7.59,65.76Z"/><path class="cls-11" d="M99,24.64a11,11,0,0,0-22,0,8.22,8.22,0,0,0,.42,16.42H98.56A8.22,8.22,0,0,0,99,24.64Z"/><path class="cls-12" d="M99,24.64a11,11,0,0,0-22,0,8.22,8.22,0,0,0,.42,16.42H98.56A8.22,8.22,0,0,0,99,24.64Z"/><path class="cls-13" d="M88,25.66c-3.09-2.51-4.3-6.33-2.69-8.53s5.41-2,8.5.55,4.3,6.33,2.7,8.53S91.07,28.17,88,25.66Z"/><path class="cls-14" d="M99,33.08c-2.43-2-3.38-5-2.12-6.71s4.25-1.54,6.68.43,3.38,5,2.12,6.71S101.46,35,99,33.08Z"/><path class="cls-15" d="M75.05,33.35c-1.8-2.8-3.88-4.14-4.66-3s0,4.32,1.84,7.12,3.87,4.15,4.65,3S76.84,36.15,75.05,33.35Z"/></g></g></g></svg>