<svg xmlns="http://www.w3.org/2000/svg" xmlns:xlink="http://www.w3.org/1999/xlink" viewBox="0 0 106.77 75.71"><defs><radialGradient id="e" cx="-656.38" cy="20.08" r="53.81" gradientTransform="matrix(-1 0 0 1 -594.71 0)" gradientUnits="userSpaceOnUse"><stop offset="0" stop-color="#fff4c3"/><stop offset=".16" stop-color="#ffe036"/><stop offset="1" stop-color="#fa761c"/></radialGradient><radialGradient id="a" cx="623.66" cy="-1766.39" r="8.08" gradientTransform="matrix(-.84 1.15 -1.62 -1.31 -2269.42 -3012.39)" gradientUnits="userSpaceOnUse"><stop offset="0" stop-color="#fff"/><stop offset=".1" stop-color="#fff" stop-opacity=".85"/><stop offset=".29" stop-color="#fff" stop-opacity=".59"/><stop offset=".47" stop-color="#fff" stop-opacity=".38"/><stop offset=".63" stop-color="#fff" stop-opacity=".22"/><stop offset=".78" stop-color="#fff" stop-opacity=".1"/><stop offset=".91" stop-color="#fff" stop-opacity=".03"/><stop offset="1" stop-color="#fff" stop-opacity="0"/></radialGradient><radialGradient id="f" cx="-3385.94" cy="3532.63" r="7.79" gradientTransform="matrix(-1.17 -1.1 .22 -.73 -4712.28 -1101.4)" xlink:href="#a"/><radialGradient id="b" cx="30.41" cy="48.51" r="37.04" gradientTransform="matrix(-1 0 0 -.73 60.81 83.95)" gradientUnits="userSpaceOnUse"><stop offset="0" stop-color="#fff"/><stop offset=".2" stop-color="#d5f3ff"/><stop offset="1" stop-color="#85bcf1"/></radialGradient><radialGradient id="c" cx="38.81" cy="53.34" r="42.11" gradientUnits="userSpaceOnUse"><stop offset="0" stop-color="#ffe036"/><stop offset=".08" stop-color="#fecb31" stop-opacity=".81"/><stop offset=".18" stop-color="#fdb52b" stop-opacity=".6"/><stop offset=".28" stop-color="#fca227" stop-opacity=".41"/><stop offset=".38" stop-color="#fb9223" stop-opacity=".26"/><stop offset=".48" stop-color="#fb8620" stop-opacity=".15"/><stop offset=".58" stop-color="#fa7d1e" stop-opacity=".07"/><stop offset=".68" stop-color="#fa781c" stop-opacity=".02"/><stop offset=".77" stop-color="#fa761c" stop-opacity="0"/></radialGradient><radialGradient id="g" cx="654.23" cy="-1758.61" r="4.47" xlink:href="#a"/><radialGradient id="h" cx="654.09" cy="-1766.86" r="3.51" xlink:href="#a"/><radialGradient id="i" cx="5.77" cy="68.41" r="2.57" gradientTransform="matrix(.9 -.43 1.26 2.62 -85.82 -108.53)" xlink:href="#a"/><radialGradient id="j" cx="92.71" cy="20" r="28.68" gradientTransform="matrix(-1 0 0 -.73 185.43 34.61)" xlink:href="#b"/><radialGradient id="k" cx="73.98" cy="29.85" r="38.33" xlink:href="#c"/><radialGradient id="l" cx="610.63" cy="-1774.83" r="3.46" xlink:href="#a"/><radialGradient id="m" cx="610.53" cy="-1781.22" r="2.72" xlink:href="#a"/><radialGradient id="n" cx="73.64" cy="35.41" r="1.99" gradientTransform="matrix(.9 -.43 1.26 2.62 -37.42 -25.52)" xlink:href="#a"/><linearGradient id="d" x1="90.08" y1="-1.14" x2="22.82" y2="74.02" gradientUnits="userSpaceOnUse"><stop offset="0" stop-color="#ffba24"/><stop offset="1" stop-color="#f50"/></linearGradient></defs><g data-name="Слой 2"><path fill="url(#d)" d="M85.13 61.7l-8.38.56-1.58 8.25-8.07-2.35-4.31 7.21-6.77-4.97-6.52 5.31-4.66-6.98-7.94 2.75-2-8.16-8.4-.12.91-8.35-7.85-2.99 3.72-7.54-6.36-5.49 6.07-5.81-4.1-7.34 7.69-3.38-1.34-8.29 8.39-.55 1.58-8.26 8.06 2.35L47.58.34l6.78 4.96L60.87 0l4.67 6.98 7.93-2.76 2 8.17 8.41.12-.92 8.35 7.85 2.99-3.71 7.54 6.35 5.49-6.06 5.81 4.09 7.33-7.69 3.39 1.34 8.29z"/><path d="M26.84 37.85A28.35 28.35 0 1055.19 9.51a28.35 28.35 0 00-28.35 28.34z" fill="url(#e)"/><path d="M59.51 34.94c-7.22-5.86-10-14.77-6.3-19.92s12.63-4.57 19.85 1.28 10 14.78 6.3 19.92-12.64 4.57-19.85-1.28z" style="mix-blend-mode:overlay" fill="url(#a)"/><path d="M30.13 44.12C31.09 41 36 42.28 41 47s8.35 11.12 7.4 14.26-5.81 1.83-10.86-2.9-8.36-11.11-7.41-14.24z" style="mix-blend-mode:overlay" fill="url(#f)" opacity=".4"/><path d="M38.49 54.5a14.24 14.24 0 00-28.41 0 10.61 10.61 0 00.53 21.21H38a10.61 10.61 0 00.54-21.21z" fill="url(#b)"/><path d="M38.49 54.5a14.24 14.24 0 00-28.41 0 10.61 10.61 0 00.53 21.21H38a10.61 10.61 0 00.54-21.21z" fill="url(#c)"/><path d="M24.28 55.82c-4-3.24-5.55-8.17-3.48-11s7-2.52 11 .71 5.56 8.18 3.49 11-7.01 2.53-11.01-.71z" style="mix-blend-mode:overlay" fill="url(#g)"/><path d="M38.56 65.4c-3.14-2.54-4.36-6.42-2.74-8.66s5.5-2 8.64.56 4.36 6.42 2.73 8.66-5.49 2.04-8.63-.56z" style="mix-blend-mode:overlay" fill="url(#h)" opacity=".4"/><path d="M7.59 65.76c-2.32-3.62-5-5.36-6-3.89s.06 5.58 2.37 9.2S9 76.42 10 75s-.1-5.63-2.41-9.24z" style="mix-blend-mode:overlay" fill="url(#i)" opacity=".2"/><path d="M99 24.64a11 11 0 00-22 0 8.22 8.22 0 00.42 16.42h21.14A8.22 8.22 0 0099 24.64z" fill="url(#j)"/><path d="M99 24.64a11 11 0 00-22 0 8.22 8.22 0 00.42 16.42h21.14A8.22 8.22 0 0099 24.64z" fill="url(#k)"/><path d="M88 25.66c-3.09-2.51-4.3-6.33-2.69-8.53s5.41-2 8.5.55 4.3 6.33 2.7 8.53-5.44 1.96-8.51-.55z" style="mix-blend-mode:overlay" fill="url(#l)"/><path d="M99 33.08c-2.43-2-3.38-5-2.12-6.71s4.25-1.54 6.68.43 3.38 5 2.12 6.71-4.22 1.49-6.68-.43z" style="mix-blend-mode:overlay" fill="url(#m)" opacity=".4"/><path d="M75.05 33.35c-1.8-2.8-3.88-4.14-4.66-3s0 4.32 1.84 7.12 3.87 4.15 4.65 3-.04-4.32-1.83-7.12z" style="mix-blend-mode:overlay" fill="url(#n)" opacity=".2"/></g></svg>